<svg xmlns="http://www.w3.org/2000/svg" fill-rule="evenodd" stroke-linejoin="round" stroke-miterlimit="1.414" clip-rule="evenodd" version="1.1" viewBox="0 0 24 24" xml:space="preserve"><path fill="#ff5252" fill-rule="nonzero" d="M10 4H4c-1.11 0-2 .89-2 2v12c0 1.097.903 2 2 2h16c1.097 0 2-.903 2-2V8a2 2 0 0 0-2-2h-8l-2-2z"/><path fill="#ffcdd2" stroke-width=".644" d="m18.034 9.132 5.692 2.0283-0.86282 7.5336-4.8292 2.6722-4.8292-2.6722-0.86282-7.5336 5.692-2.0283m0 1.3522-3.5607 7.9843h1.3264l0.71472-1.79h3.0263l0.71472 1.79h1.32l-3.5414-7.9843m1.0431 5.0868h-2.0798l1.0367-2.4919z"/></svg>